<?xml version="1.0" standalone="no"?>
<!DOCTYPE svg PUBLIC "-//W3C//DTD SVG 20010904//EN"
 "http://www.w3.org/TR/2001/REC-SVG-20010904/DTD/svg10.dtd">
<svg version="1.0" xmlns="http://www.w3.org/2000/svg"
 width="396.000000pt" height="396.000000pt" viewBox="0 0 396.000000 396.000000"
 preserveAspectRatio="xMidYMid meet">
<metadata>
Created by potrace 1.11, written by Peter Selinger 2001-2013
</metadata>
<g transform="translate(0.000000,396.000000) scale(0.100000,-0.100000)"
fill="#000000" stroke="none">
<path d="M793 3337 c3 -9 -35 -12 -159 -10 -90 0 -166 -3 -170 -8 -3 -5 -30
-9 -60 -9 -30 0 -54 -4 -54 -9 0 -5 -8 -8 -17 -6 -10 1 -24 -2 -30 -8 -7 -5
-13 -6 -13 -1 0 5 -5 2 -10 -6 -9 -13 -10 -13 -10 0 0 11 -2 12 -8 3 -5 -7
-27 -14 -50 -15 -22 -1 -40 -4 -38 -7 2 -3 -10 -7 -26 -8 -17 -1 -37 -8 -46
-15 -13 -11 -15 -11 -8 2 4 8 -4 2 -18 -15 -23 -27 -33 -76 -25 -131 0 -4 -5
-11 -13 -15 -10 -7 -10 -9 2 -9 11 -1 10 -4 -4 -15 -11 -8 -14 -15 -7 -15 7 0
9 -5 6 -10 -4 -6 -7 -53 -7 -105 0 -52 -4 -95 -8 -95 -5 0 -9 -56 -8 -125 0
-85 4 -123 11 -118 6 4 8 0 4 -10 -4 -11 1 -20 12 -27 13 -6 17 -17 14 -30 -3
-11 0 -27 7 -35 10 -12 10 -15 0 -15 -10 0 -10 -3 0 -15 7 -8 10 -28 8 -44 -2
-17 0 -29 5 -28 9 2 12 -11 18 -80 2 -18 8 -33 14 -33 5 0 3 -5 -5 -10 -12 -8
-12 -10 5 -10 17 0 17 -2 5 -10 -8 -5 -10 -10 -3 -10 6 0 9 -9 6 -22 -4 -19
-3 -20 6 -8 6 8 11 10 11 5 0 -6 -5 -16 -12 -23 -9 -9 -9 -12 3 -12 11 0 14
-10 11 -39 -3 -31 0 -42 18 -54 14 -10 20 -22 17 -31 -4 -11 -1 -16 11 -16 15
0 15 -2 2 -10 -10 -6 -11 -10 -2 -10 6 0 12 -7 12 -15 0 -8 5 -15 11 -15 8 0
7 -6 -2 -17 -10 -11 -10 -14 -1 -9 7 4 12 2 12 -5 0 -6 9 -19 20 -29 12 -10
20 -32 22 -58 2 -23 9 -44 16 -47 8 -3 10 0 6 7 -4 7 -3 8 4 4 7 -4 12 -16 12
-26 0 -10 5 -22 12 -26 7 -5 8 -3 3 6 -5 9 -4 11 4 6 9 -6 9 -11 0 -22 -9 -11
-8 -14 7 -14 15 0 16 -2 5 -9 -10 -7 -8 -12 10 -25 13 -9 19 -16 14 -16 -5 0
-2 -6 7 -12 9 -7 18 -22 20 -33 2 -11 12 -26 23 -33 17 -11 17 -12 2 -8 -11 4
-16 2 -11 -5 3 -6 14 -9 23 -6 10 2 18 -1 18 -9 0 -7 -4 -11 -9 -8 -5 4 -4 -3
3 -14 7 -12 18 -18 24 -14 5 3 4 -2 -4 -12 -12 -15 -12 -17 0 -14 8 2 13 -4
13 -14 -1 -10 2 -15 7 -12 5 3 9 -2 9 -10 0 -9 3 -16 8 -16 4 0 13 -9 20 -21
9 -14 10 -19 2 -14 -7 4 -4 -4 5 -18 9 -15 14 -31 10 -37 -3 -5 -1 -10 4 -10
6 0 11 -7 11 -15 0 -8 9 -15 19 -15 14 0 19 -6 16 -20 -3 -14 2 -20 13 -20 15
0 15 -2 2 -10 -13 -8 -12 -10 4 -10 11 0 16 -3 13 -7 -4 -3 -1 -13 6 -21 6 -9
7 -13 1 -9 -6 3 -11 0 -11 -8 0 -15 17 -15 30 0 5 6 6 2 3 -9 -4 -11 1 -27 11
-39 13 -14 13 -18 3 -12 -13 8 -13 7 -1 -8 8 -10 11 -20 8 -24 -4 -3 1 -12 11
-20 9 -8 11 -12 5 -8 -7 3 -13 2 -13 -4 0 -5 6 -12 13 -14 9 -4 9 -6 -2 -6 -8
-1 -5 -9 10 -22 13 -11 18 -18 12 -14 -7 3 -13 2 -13 -4 0 -5 6 -12 13 -14 9
-4 9 -6 -1 -6 -10 -1 -10 -5 2 -17 9 -8 14 -20 11 -25 -4 -5 0 -9 7 -9 9 0 9
-3 -2 -10 -13 -9 -13 -10 0 -10 10 0 15 -10 15 -32 0 -33 14 -60 28 -51 12 7
8 -12 -5 -25 -9 -9 -9 -12 1 -12 7 0 9 -4 6 -10 -3 -5 2 -10 12 -10 15 0 16
-2 3 -10 -11 -7 -11 -10 -2 -10 7 0 10 -5 7 -10 -3 -6 -1 -10 5 -10 6 0 9 -4
6 -9 -3 -5 1 -12 10 -15 9 -3 14 -13 11 -20 -3 -8 2 -20 11 -28 11 -9 14 -10
8 0 -5 8 0 12 13 12 12 0 21 -4 21 -8 0 -7 50 -41 65 -44 43 -10 97 -13 101
-6 3 5 12 1 20 -9 9 -13 13 -14 14 -4 0 10 3 11 14 2 8 -6 28 -13 45 -14 17
-1 31 -5 31 -9 0 -5 15 -8 33 -8 18 0 39 -6 46 -12 11 -10 12 -10 7 -1 -5 9
-2 11 8 7 9 -3 16 -10 16 -16 0 -5 4 -7 9 -3 6 3 190 5 411 5 220 0 399 4 396
8 -3 5 19 9 48 9 29 0 57 3 62 5 5 3 18 4 29 2 10 -1 24 1 30 5 5 5 25 8 43 7
17 0 32 2 32 5 0 3 12 5 28 5 15 -1 26 4 25 10 -1 7 8 9 24 6 17 -3 24 -1 19
6 -4 6 3 9 18 8 15 -2 27 3 31 13 5 13 7 14 15 1 7 -11 10 -12 10 -2 0 7 5 10
10 7 6 -3 10 -1 10 6 0 7 3 9 7 6 3 -4 13 2 20 13 8 11 19 18 24 15 17 -11 31
6 18 21 -10 12 -10 15 1 12 17 -4 32 69 16 76 -7 3 -7 5 1 5 6 1 9 10 6 21 -3
13 0 20 8 20 11 0 11 2 -1 10 -11 7 -11 10 -2 10 7 0 10 5 7 10 -3 6 0 10 7
10 8 0 9 3 3 8 -15 10 -12 31 5 42 13 8 13 10 1 10 -12 0 -12 3 -3 12 7 7 12
29 12 49 0 21 6 40 13 42 9 4 9 6 -1 6 -10 1 -10 4 0 15 7 8 16 12 21 9 4 -2
7 1 7 6 0 6 -5 11 -10 11 -11 0 8 40 25 52 6 5 4 8 -5 8 -11 1 -10 4 4 15 11
8 16 15 12 15 -5 0 -2 8 5 17 9 11 10 14 2 9 -9 -5 -11 -2 -7 8 3 9 9 14 12
13 4 -1 8 2 9 7 0 5 9 13 18 18 13 8 14 12 3 26 -7 9 -8 13 -3 10 6 -3 16 0
23 8 8 9 9 14 2 14 -6 0 -2 9 9 21 11 12 17 28 14 37 -5 11 -3 13 7 7 10 -6
12 -4 6 10 -5 15 -4 16 8 6 13 -11 15 -9 11 8 -2 12 0 21 6 21 5 0 9 7 9 15 0
8 4 15 9 15 10 0 27 39 23 53 -1 4 3 7 9 7 5 0 7 5 3 12 -5 8 -2 9 11 4 16 -6
16 -4 4 11 -12 14 -12 16 1 11 11 -4 16 1 18 15 0 12 6 23 12 25 5 2 10 9 10
16 0 6 9 18 20 26 14 10 16 16 7 22 -9 6 -9 8 1 8 7 0 10 5 7 10 -6 9 7 14 27
11 4 0 5 6 1 15 -3 9 0 20 8 25 10 6 10 9 2 9 -7 0 -13 5 -13 11 0 5 5 7 10 4
6 -3 10 -1 10 5 0 6 6 8 13 4 6 -4 9 -4 5 1 -4 4 -2 15 5 23 10 13 9 14 -3 7
-8 -4 -4 3 10 16 26 26 39 29 24 6 -5 -7 -1 -4 8 6 10 11 15 24 11 31 -4 6 2
4 12 -4 10 -8 16 -10 13 -5 -3 6 0 16 8 23 11 10 14 10 14 0 0 -8 4 -7 10 4 6
9 24 19 40 23 17 4 28 10 26 14 -3 4 7 8 22 9 14 1 29 8 34 15 6 9 8 9 8 0 0
-7 5 -13 11 -13 5 0 8 4 5 9 -7 10 49 33 58 24 3 -4 6 -1 6 6 0 8 8 11 20 8
11 -3 18 -2 16 1 -2 4 2 13 10 20 9 8 14 9 14 2 0 -6 10 -2 22 10 16 15 24 17
30 8 5 -9 8 -7 8 6 0 12 5 16 15 12 8 -3 15 -1 15 5 0 6 4 7 10 4 6 -3 7 1 4
9 -3 9 -1 16 5 16 6 0 11 -6 11 -12 0 -7 9 -2 19 11 14 18 20 21 24 10 4 -10
8 -7 12 8 4 13 11 20 16 17 5 -3 6 -10 3 -16 -4 -7 -2 -8 5 -4 6 4 9 12 6 17
-4 5 1 9 9 9 9 0 16 6 16 13 0 8 4 7 11 -3 9 -12 10 -11 6 8 -3 12 -1 20 3 17
5 -3 12 0 15 6 4 5 14 8 22 5 8 -3 11 -1 8 4 -3 6 -1 10 5 10 6 0 9 4 6 9 -3
4 6 7 19 5 14 -1 23 2 19 7 -3 5 0 9 7 9 7 0 9 3 6 6 -4 4 -15 1 -24 -7 -17
-12 -17 -12 -2 5 9 9 25 18 36 19 11 0 20 7 20 14 0 10 -4 10 -16 0 -14 -11
-14 -10 -2 6 8 10 20 16 27 13 14 -5 37 18 40 42 2 8 9 19 16 23 10 7 10 9 1
9 -7 0 -13 4 -13 9 0 5 10 7 23 4 18 -4 19 -3 7 6 -8 6 -10 11 -4 11 7 0 15
11 18 25 4 15 14 25 24 25 15 0 15 2 2 10 -13 9 -13 10 0 10 12 0 12 2 2 9
-11 6 -9 9 6 13 19 5 20 14 20 148 0 134 -1 143 -20 148 -15 4 -17 7 -6 13 10
7 10 9 -2 9 -13 0 -13 1 0 10 13 8 12 10 -3 10 -10 0 -15 5 -12 10 3 6 -3 10
-14 10 -14 0 -19 5 -16 19 3 15 0 18 -13 14 -15 -6 -15 -5 -3 10 12 15 12 17
-4 11 -13 -5 -16 -4 -11 4 4 8 2 10 -7 6 -8 -3 -18 0 -23 7 -4 8 -3 10 4 5 8
-4 10 -2 6 7 -3 8 -13 14 -22 13 -9 0 -16 5 -14 12 1 8 -2 11 -7 8 -5 -4 -12
-2 -15 2 -3 5 -17 8 -31 7 -14 -2 -25 1 -25 6 0 5 -20 9 -45 9 -29 0 -45 4
-45 13 0 8 -4 7 -10 -3 -6 -10 -10 -11 -10 -2 0 8 -16 12 -45 12 -29 0 -45 -4
-45 -12 0 -9 -4 -8 -10 2 -5 8 -10 10 -10 4 0 -6 -6 -11 -12 -12 -7 0 -30 -2
-51 -3 -21 -1 -40 -6 -43 -11 -3 -4 -25 -8 -50 -8 l-44 0 0 65 c0 45 -4 65
-12 65 -9 0 -8 4 2 10 10 6 11 10 3 10 -8 0 -11 9 -9 23 5 34 -14 67 -40 67
-12 0 -29 7 -37 15 -8 8 -17 11 -21 8 -3 -4 -6 -1 -6 5 0 7 -3 11 -7 11 -31
-5 -143 3 -139 9 3 5 -1 9 -9 9 -8 0 -12 -4 -9 -8 2 -5 -8 -2 -22 6 -15 8 -31
12 -36 9 -4 -3 -8 -1 -8 3 0 5 -19 10 -42 12 -23 1 -48 7 -55 13 -10 8 -13 7
-13 -3 0 -10 -3 -10 -12 -1 -7 7 -36 12 -65 12 -29 0 -53 3 -53 8 0 4 -13 8
-30 8 -16 1 -30 -3 -30 -8 0 -7 -5 -7 -12 -1 -14 10 -56 16 -120 17 -21 1 -38
3 -38 6 0 8 -128 5 -136 -3 -4 -3 -15 -2 -25 4 -14 7 -19 6 -19 -2 0 -9 -3 -9
-14 0 -20 17 -1490 15 -1483 -2z m2972 -377 c3 -5 1 -10 -4 -10 -6 0 -11 5
-11 10 0 6 2 10 4 10 3 0 8 -4 11 -10z m-65 -100 c5 8 10 10 10 5 0 -6 -5 -16
-12 -23 -9 -9 -7 -11 8 -8 10 2 26 -3 34 -12 13 -14 12 -15 -2 -9 -12 4 -15 2
-12 -8 3 -7 13 -15 23 -18 15 -3 18 -19 20 -101 2 -74 -1 -96 -11 -96 -10 0
-9 -3 2 -10 13 -9 13 -10 0 -10 -12 0 -12 -2 -2 -9 11 -6 10 -10 -3 -15 -15
-5 -15 -9 -4 -23 10 -12 10 -14 2 -9 -8 4 -13 2 -13 -4 0 -6 -4 -8 -10 -5 -6
4 -7 -1 -3 -11 4 -12 3 -15 -5 -10 -7 4 -12 1 -12 -9 0 -9 -4 -13 -10 -10 -5
3 -10 1 -10 -4 0 -6 5 -11 10 -11 6 0 10 -5 10 -11 0 -5 -4 -7 -10 -4 -5 3
-10 1 -10 -5 0 -6 -4 -9 -9 -5 -6 3 -8 -4 -6 -15 2 -11 0 -18 -6 -15 -8 6 -13
-8 -10 -28 1 -5 -3 -6 -9 -2 -6 3 -7 11 -4 17 5 7 2 8 -5 3 -7 -4 -11 -16 -8
-26 4 -15 2 -17 -13 -9 -14 8 -18 6 -16 -7 3 -19 -27 -53 -47 -53 -7 0 -19 -9
-27 -21 -8 -11 -24 -25 -35 -30 -18 -9 -19 -9 -2 4 9 8 17 18 17 23 -1 5 -16
-9 -36 -31 -19 -22 -31 -31 -28 -21 5 13 4 17 -4 12 -7 -4 -12 -14 -12 -21 0
-9 -6 -12 -15 -8 -10 3 -15 0 -13 -8 2 -9 -5 -14 -19 -13 -12 1 -21 -4 -20
-10 1 -6 -4 -10 -10 -8 -7 1 -13 -2 -13 -8 0 -5 -7 -6 -17 -3 -12 5 -14 3 -8
-7 6 -9 4 -11 -4 -6 -7 5 -19 0 -27 -10 -9 -11 -13 -13 -9 -4 4 10 2 9 -8 -2
-8 -10 -17 -15 -20 -11 -4 3 -7 0 -7 -8 0 -12 -2 -11 -10 1 -7 12 -12 12 -22
2 -26 -26 -39 -14 -37 33 2 25 8 45 13 45 6 0 4 5 -4 10 -13 9 -13 12 2 24 10
7 15 16 11 19 -3 4 0 13 6 21 9 11 9 16 0 21 -8 5 -8 10 -1 14 6 4 12 23 14
44 1 20 5 37 8 37 3 0 7 19 9 42 1 23 7 46 14 50 9 6 8 8 -3 8 -13 0 -13 1 0
10 8 5 11 10 6 10 -5 0 -4 6 1 13 6 6 9 20 8 30 -2 9 1 17 6 17 5 0 9 34 9 75
0 43 4 75 10 75 6 0 10 7 10 15 0 21 33 52 53 49 14 -2 15 1 6 19 -7 12 -8 19
-4 15 5 -4 15 -2 23 5 13 9 14 9 8 0 -4 -7 -2 -13 3 -13 6 0 11 6 11 14 0 8 5
18 12 22 7 5 8 3 3 -6 -5 -9 -4 -11 3 -6 7 4 12 14 12 22 0 9 5 12 11 8 6 -3
15 0 20 7 7 12 9 12 9 0 0 -11 5 -9 22 5 13 12 18 13 13 4 -8 -13 -6 -13 7 -2
11 9 40 13 82 11 36 -1 69 1 73 4 3 4 12 -1 19 -11 12 -15 15 -15 24 -2z m140
-534 c0 -2 -7 -9 -15 -16 -13 -11 -14 -10 -9 4 5 14 24 23 24 12z"/>
<path d="M3309 2733 c-13 -16 -12 -17 4 -4 16 13 21 21 13 21 -2 0 -10 -8 -17
-17z"/>
<path d="M3569 2313 c-13 -16 -12 -17 4 -4 16 13 21 21 13 21 -2 0 -10 -8 -17
-17z"/>
<path d="M2530 719 c0 -5 5 -7 10 -4 6 3 10 8 10 11 0 2 -4 4 -10 4 -5 0 -10
-5 -10 -11z"/>
</g>
</svg>
